<?xml version="1.0" encoding="UTF-8"?>
<svg version="1.1" xmlns="http://www.w3.org/2000/svg" width="96" height="96">
<path d="M0 0 C5.21160515 4.10403173 8.02802696 9.80119321 11.25 15.5 C12.47857998 17.63965989 13.7077759 19.77896621 14.9375 21.91796875 C15.91396484 23.62412354 15.91396484 23.62412354 16.91015625 25.36474609 C20.26979867 31.22193325 23.69138743 37.04308022 27.10876465 42.86669922 C28.23708207 44.79047499 29.36336952 46.7154268 30.48925781 48.640625 C31.18548664 49.82946236 31.88177286 51.01826611 32.578125 52.20703125 C33.19075195 53.2535083 33.80337891 54.29998535 34.43457031 55.37817383 C35.57215776 57.28343764 36.76909847 59.15364771 38 61 C38.3359375 63.12109375 38.3359375 63.12109375 38.375 65.4375 C38.40335937 66.19933594 38.43171875 66.96117188 38.4609375 67.74609375 C37.80298423 70.96337374 36.58260557 71.99109069 34 74 C31.40258544 74.39508122 29.22763178 74.54802788 26.6328125 74.51757812 C25.8973822 74.5245874 25.1619519 74.53159668 24.40423584 74.53881836 C21.97743783 74.55639881 19.55180951 74.54477639 17.125 74.53125 C15.4363584 74.53394492 13.74771832 74.53782735 12.05908203 74.54284668 C8.52165946 74.54874176 4.98464117 74.54017873 1.44726562 74.52148438 C-3.08588845 74.49869448 -7.61809527 74.51181756 -12.1512146 74.53577423 C-15.63768647 74.55023214 -19.12393395 74.54562633 -22.6104126 74.53526306 C-24.28175977 74.53259574 -25.95312735 74.53586576 -27.62445068 74.54518127 C-29.96111975 74.55534719 -32.29625744 74.53984749 -34.6328125 74.51757812 C-35.66779877 74.52972351 -35.66779877 74.52972351 -36.72369385 74.54211426 C-40.00162445 74.48427146 -41.75247212 74.18337484 -44.41479492 72.21105957 C-46.41184269 69.42555778 -46.77925883 67.11441463 -46.61474609 63.71240234 C-45.24638069 57.67485681 -41.54951348 52.51229397 -38.3125 47.3125 C-37.53347534 46.0294872 -36.75639458 44.7452922 -35.98120117 43.45996094 C-34.41569489 40.86892523 -32.84067943 38.28407714 -31.2578125 35.70361328 C-28.03171532 30.43148592 -24.92855238 25.08761772 -21.8125 19.75 C-9.00088736 -2.17318722 -9.00088736 -2.17318722 0 0 Z M-7 9 C-8.39820138 11.21731936 -9.76763358 13.44538154 -11.125 15.6875 C-11.72248047 16.62625977 -11.72248047 16.62625977 -12.33203125 17.58398438 C-14.64977019 21.42297503 -14.64977019 21.42297503 -14.36328125 25.75 C-13.91339844 26.4925 -13.46351562 27.235 -13 28 C-12.360625 29.093125 -11.72125 30.18625 -11.0625 31.3125 C-10.381875 32.199375 -9.70125 33.08625 -9 34 C-8.01 34 -7.02 34 -6 34 C-6 25.75 -6 17.5 -6 9 C-6.33 9 -6.66 9 -7 9 Z M-2 9 C-2 17.25 -2 25.5 -2 34 C2.59195094 32.85201226 2.87820524 32.26471427 5.25 28.4375 C6.03117187 27.19806641 6.03117187 27.19806641 6.828125 25.93359375 C7.21484375 25.29550781 7.6015625 24.65742187 8 24 C6.52520827 21.49732313 5.04544936 18.99783579 3.5625 16.5 C2.93118164 15.42685547 2.93118164 15.42685547 2.28710938 14.33203125 C1.21915898 12.53787459 0.11265239 10.76678262 -1 9 C-1.33 9 -1.66 9 -2 9 Z M-19 30 C-21.64 34.62 -24.28 39.24 -27 44 C-25.68 44 -24.36 44 -23 44 C-21.6072711 42.38263741 -20.28062485 40.7074998 -19 39 C-17.36643049 37.62631655 -15.7074998 36.28062485 -14 35 C-15.3553326 32.46326712 -15.3553326 32.46326712 -17 30 C-17.66 30 -18.32 30 -19 30 Z M10 30 C8.9739266 31.31337396 7.97272675 32.64664105 7 34 C8.49895671 37.81552617 10.7986856 39.53745046 14 42 C14.33 42.66 14.66 43.32 15 44 C16.32 43.67 17.64 43.34 19 43 C17.69181533 40.83061859 16.37874076 38.6644848 15.0625 36.5 C14.68931641 35.87996094 14.31613281 35.25992188 13.93164062 34.62109375 C12.9818016 33.06370003 11.99386689 31.5296725 11 30 C10.67 30 10.34 30 10 30 Z M-9 43 C-9.33333333 46 -9.33333333 46 -9 49 C-7.11499729 51.31563087 -7.11499729 51.31563087 -4 51.25 C-0.88500271 51.31563087 -0.88500271 51.31563087 1 49 C1.33333333 46 1.33333333 46 1 43 C-0.88500271 40.68436913 -0.88500271 40.68436913 -4 40.75 C-7.11499729 40.68436913 -7.11499729 40.68436913 -9 43 Z M-30 48 C-31.36402043 50.2863012 -32.71634274 52.57821749 -34.0625 54.875 C-34.45244141 55.52597656 -34.84238281 56.17695312 -35.24414062 56.84765625 C-36.22444533 58.53065725 -37.11898432 60.26296199 -38 62 C-37.67 62.66 -37.34 63.32 -37 64 C-31.39 60.37 -25.78 56.74 -20 53 C-20.99 51.35 -21.98 49.7 -23 48 C-26.62599422 47.58274322 -26.62599422 47.58274322 -30 48 Z M15 48 C12.99135641 50.3726974 12.99135641 50.3726974 12 53 C14.61678563 54.70051054 17.24462239 56.38310507 19.875 58.0625 C20.62136719 58.54783203 21.36773437 59.03316406 22.13671875 59.53320312 C22.85214844 59.98759766 23.56757812 60.44199219 24.3046875 60.91015625 C24.96452637 61.33433838 25.62436523 61.75852051 26.30419922 62.19555664 C26.86381348 62.46102295 27.42342773 62.72648926 28 63 C28.66 62.67 29.32 62.34 30 62 C26.04 55.07 26.04 55.07 22 48 C19.69 48 17.38 48 15 48 Z M-25.625 61.3125 C-26.43839844 61.83779297 -27.25179688 62.36308594 -28.08984375 62.90429688 C-30.10419599 64.22293586 -32.09533373 65.52713696 -34 67 C-34 67.33 -34 67.66 -34 68 C-24.76 68 -15.52 68 -6 68 C-6 64.7 -6 61.4 -6 58 C-14.59578085 55.39683724 -18.34599087 56.26806189 -25.625 61.3125 Z M1.875 57 C0.59625 57.33 -0.6825 57.66 -2 58 C-2 61.3 -2 64.6 -2 68 C7.24 68 16.48 68 26 68 C23.71946667 65.71946667 22.15590088 64.3401659 19.49609375 62.73828125 C18.83802734 62.34189453 18.17996094 61.94550781 17.50195312 61.53710938 C16.48004883 60.93092773 16.48004883 60.93092773 15.4375 60.3125 C14.75236328 59.89677734 14.06722656 59.48105469 13.36132812 59.05273438 C8.73541515 56.28808178 6.95456593 55.68914428 1.875 57 Z " fill="#000000" transform="translate(52,10)"/>
</svg>
