<?xml version="1.0" encoding="UTF-8"?>
<svg version="1.1" xmlns="http://www.w3.org/2000/svg" width="64" height="64">
<path d="M0 0 C0.99 0.33 1.98 0.66 3 1 C4.1875 3.5625 4.1875 3.5625 5 6 C5.66 6 6.32 6 7 6 C7.268125 5.195625 7.53625 4.39125 7.8125 3.5625 C8.204375 2.716875 8.59625 1.87125 9 1 C9.99 0.67 10.98 0.34 12 0 C12.66 0.33 13.32 0.66 14 1 C14 2.32 14 3.64 14 5 C14.94875 4.938125 15.8975 4.87625 16.875 4.8125 C17.90625 4.874375 18.9375 4.93625 20 5 C22 8 22 8 22 11 C23.32 11.33 24.64 11.66 26 12 C26.66 10.35 27.32 8.7 28 7 C28.66 7 29.32 7 30 7 C30 6.34 30 5.68 30 5 C31.66611905 4.957279 33.33382885 4.95936168 35 5 C36 6 36 6 36.0625 8.5625 C36.041875 9.366875 36.02125 10.17125 36 11 C31.25 12 31.25 12 29 12 C28.67 12.66 28.34 13.32 28 14 C26.68 14 25.36 14 24 14 C24 14.99 24 15.98 24 17 C26.31 17 28.62 17 31 17 C31 16.34 31 15.68 31 15 C33.375 14.375 33.375 14.375 36 14 C36.66 14.66 37.32 15.32 38 16 C37.625 18.625 37.625 18.625 37 21 C35.02 21 33.04 21 31 21 C31 20.34 31 19.68 31 19 C28.69 19 26.38 19 24 19 C24 19.66 24 20.32 24 21 C24.61875 21.12375 25.2375 21.2475 25.875 21.375 C28 22 28 22 30 24 C31.66617115 24.04063832 33.33388095 24.042721 35 24 C36 25 36 25 36.0625 27.5625 C36.041875 28.366875 36.02125 29.17125 36 30 C33.8125 30.8125 33.8125 30.8125 31 31 C28.1875 28.6875 28.1875 28.6875 26 26 C26 25.34 26 24.68 26 24 C25.34 24 24.68 24 24 24 C23.505 25.485 23.505 25.485 23 27 C22.01 27.495 22.01 27.495 21 28 C20.34786708 30.02463255 20.34786708 30.02463255 20 32 C19.2575 32.144375 18.515 32.28875 17.75 32.4375 C15.07319309 32.91956351 15.07319309 32.91956351 12.875 33.75 C11 34 11 34 9.25 32.6875 C8 31 8 31 8 29 C6.68 29 5.36 29 4 29 C3.67 30.32 3.34 31.64 3 33 C-0.75 34.125 -0.75 34.125 -3 33 C-4.66194453 32.64386903 -6.328451 32.30791692 -8 32 C-8.103125 31.38125 -8.20625 30.7625 -8.3125 30.125 C-8.87525373 27.63473516 -8.87525373 27.63473516 -12 26 C-12 25.34 -12 24.68 -12 24 C-12.66 24 -13.32 24 -14 24 C-14.0825 24.598125 -14.165 25.19625 -14.25 25.8125 C-15.24235279 28.70686231 -16.30924205 29.57987775 -19 31 C-21.75 30.6875 -21.75 30.6875 -24 30 C-24 28.35 -24 26.7 -24 25 C-19.25 24 -19.25 24 -17 24 C-16.34 23.01 -15.68 22.02 -15 21 C-14.01 21 -13.02 21 -12 21 C-12 20.34 -12 19.68 -12 19 C-14.31 19 -16.62 19 -19 19 C-19 19.66 -19 20.32 -19 21 C-20.98 21 -22.96 21 -25 21 C-25.625 18.625 -25.625 18.625 -26 16 C-25.34 15.34 -24.68 14.68 -24 14 C-21.375 14.375 -21.375 14.375 -19 15 C-19 15.66 -19 16.32 -19 17 C-16.69 17 -14.38 17 -12 17 C-12 16.01 -12 15.02 -12 14 C-13.32 14 -14.64 14 -16 14 C-16.66 13.01 -17.32 12.02 -18 11 C-19.2065625 11.2784375 -19.2065625 11.2784375 -20.4375 11.5625 C-21.283125 11.706875 -22.12875 11.85125 -23 12 C-24 11 -24 11 -24.125 8.5 C-24 6 -24 6 -23 5 C-21.33382885 4.95936168 -19.66611905 4.957279 -18 5 C-18 5.66 -18 6.32 -18 7 C-17.01 7.33 -16.02 7.66 -15 8 C-14.3125 10.0625 -14.3125 10.0625 -14 12 C-12.68 11.67 -11.36 11.34 -10 11 C-9.855625 10.195625 -9.71125 9.39125 -9.5625 8.5625 C-9 6 -9 6 -8 5 C-6.00041636 4.95919217 -3.99954746 4.95745644 -2 5 C-2 3.68 -2 2.36 -2 1 C-1.34 0.67 -0.68 0.34 0 0 Z M2 12 C2 12.33 2 12.66 2 13 C4.64 13 7.28 13 10 13 C10 12.67 10 12.34 10 12 C7.36 12 4.72 12 2 12 Z M0 14 C0 16.64 0 19.28 0 22 C0.33 22 0.66 22 1 22 C1 19.36 1 16.72 1 14 C0.67 14 0.34 14 0 14 Z M11 14 C11 16.64 11 19.28 11 22 C11.33 22 11.66 22 12 22 C12 19.36 12 16.72 12 14 C11.67 14 11.34 14 11 14 Z M3 15 C3 16.65 3 18.3 3 20 C3.33 20 3.66 20 4 20 C4 18.35 4 16.7 4 15 C3.67 15 3.34 15 3 15 Z M8 15 C8 16.65 8 18.3 8 20 C8.33 20 8.66 20 9 20 C9 18.35 9 16.7 9 15 C8.67 15 8.34 15 8 15 Z M-6 16 C-5 19 -5 19 -5 19 Z M17 16 C18 19 18 19 18 19 Z M4 20 C8 21 8 21 8 21 Z " fill="#000000" transform="translate(26,15)"/>
</svg>
