<?xml version="1.0" encoding="UTF-8"?>
<svg version="1.1" xmlns="http://www.w3.org/2000/svg" width="100" height="100">
<path d="M0 0 C0.66032227 -0.00350464 1.32064453 -0.00700928 2.00097656 -0.01062012 C4.18825732 -0.01943775 6.37521583 -0.01358837 8.5625 -0.00683594 C10.07942772 -0.00818258 11.59635501 -0.01012311 13.11328125 -0.01263428 C16.29431258 -0.01558558 19.47523169 -0.01128778 22.65625 -0.00195312 C26.73877902 0.00944149 30.82104509 0.00288204 34.90356445 -0.00909805 C38.03647858 -0.01631654 41.16933011 -0.01402879 44.30224609 -0.00884247 C45.80778026 -0.00750594 47.31332007 -0.00915382 48.81884766 -0.01380157 C50.92105212 -0.01886672 53.02282758 -0.01115721 55.125 0 C56.92130859 0.00238678 56.92130859 0.00238678 58.75390625 0.00482178 C61.5625 0.25878906 61.5625 0.25878906 63.5625 2.25878906 C63.81646729 4.23217773 63.81646729 4.23217773 63.82128906 6.67675781 C63.82759338 7.59110596 63.83389771 8.5054541 63.84039307 9.44750977 C63.8363446 10.43710693 63.83229614 11.4267041 63.828125 12.44628906 C63.83003845 13.45973389 63.8319519 14.47317871 63.83392334 15.51733398 C63.83528591 17.66260018 63.83158447 19.80787459 63.82324219 21.953125 C63.81254382 25.24530478 63.82313519 28.53693884 63.8359375 31.82910156 C63.83461592 33.90983194 63.83205355 35.99056197 63.828125 38.07128906 C63.83217346 39.06088623 63.83622192 40.0504834 63.84039307 41.07006836 C63.83093658 42.44159058 63.83093658 42.44159058 63.82128906 43.84082031 C63.81969788 44.64753174 63.81810669 45.45424316 63.81646729 46.28540039 C63.5625 48.25878906 63.5625 48.25878906 61.5625 50.25878906 C59.13232422 50.48583984 59.13232422 50.48583984 56.1171875 50.45410156 C55.04082031 50.44765625 53.96445313 50.44121094 52.85546875 50.43457031 C51.16357422 50.40943359 51.16357422 50.40943359 49.4375 50.38378906 C48.30183594 50.37476563 47.16617188 50.36574219 45.99609375 50.35644531 C43.18468701 50.33282005 40.37369702 50.29987919 37.5625 50.25878906 C37.5625 52.89878906 37.5625 55.53878906 37.5625 58.25878906 C38.8825 58.25878906 40.2025 58.25878906 41.5625 58.25878906 C41.5625 58.91878906 41.5625 59.57878906 41.5625 60.25878906 C32.3225 60.25878906 23.0825 60.25878906 13.5625 60.25878906 C13.5625 59.59878906 13.5625 58.93878906 13.5625 58.25878906 C14.8825 58.25878906 16.2025 58.25878906 17.5625 58.25878906 C17.5625 55.61878906 17.5625 52.97878906 17.5625 50.25878906 C16.84594238 50.2692627 16.12938477 50.27973633 15.39111328 50.29052734 C12.15661095 50.33200205 8.92216447 50.35808798 5.6875 50.38378906 C4.55957031 50.40054688 3.43164062 50.41730469 2.26953125 50.43457031 C0.65498047 50.44423828 0.65498047 50.44423828 -0.9921875 50.45410156 C-2.48468018 50.46981201 -2.48468018 50.46981201 -4.00732422 50.48583984 C-6.4375 50.25878906 -6.4375 50.25878906 -8.4375 48.25878906 C-8.69146729 46.28540039 -8.69146729 46.28540039 -8.69628906 43.84082031 C-8.70259338 42.92647217 -8.70889771 42.01212402 -8.71539307 41.07006836 C-8.7113446 40.08047119 -8.70729614 39.09087402 -8.703125 38.07128906 C-8.70503845 37.05784424 -8.7069519 36.04439941 -8.70892334 35.00024414 C-8.71028591 32.85497795 -8.70658447 30.70970353 -8.69824219 28.56445312 C-8.68754382 25.27227334 -8.69813519 21.98063928 -8.7109375 18.68847656 C-8.70961592 16.60774619 -8.70705355 14.52701615 -8.703125 12.44628906 C-8.70717346 11.45669189 -8.71122192 10.46709473 -8.71539307 9.44750977 C-8.70908875 8.53316162 -8.70278442 7.61881348 -8.69628906 6.67675781 C-8.69469788 5.87004639 -8.69310669 5.06333496 -8.69146729 4.23217773 C-8.04706251 -0.77500692 -4.07574386 0.0054155 0 0 Z M-5.28726196 3.5352478 C-7.38677438 6.68120209 -6.86209376 10.53493324 -6.8359375 14.19628906 C-6.83880768 15.072771 -6.84167786 15.94925293 -6.84463501 16.85229492 C-6.84667598 18.70492194 -6.84114378 20.55757049 -6.82861328 22.41015625 C-6.81255984 25.24821085 -6.82846055 28.08484133 -6.84765625 30.92285156 C-6.84567382 32.72233388 -6.84183016 34.5218153 -6.8359375 36.32128906 C-6.84201019 37.17134521 -6.84808289 38.02140137 -6.8543396 38.8972168 C-6.90326444 43.15859378 -6.90326444 43.15859378 -5.28726196 46.98233032 C-2.64011541 48.80903744 -0.65337427 48.63993738 2.546875 48.64697266 C3.77825195 48.65642914 5.00962891 48.66588562 6.27832031 48.67562866 C7.62305014 48.67025895 8.96777704 48.664106 10.3125 48.65722656 C11.6910823 48.65924753 13.06966355 48.66215916 14.44824219 48.66592407 C17.33669214 48.67034641 20.22486367 48.66391965 23.11328125 48.64990234 C26.81579754 48.63281005 30.51766146 48.64265178 34.22015381 48.66061974 C37.06661902 48.67146028 39.91292955 48.66801009 42.75939941 48.66023636 C44.12455319 48.65823508 45.48972102 48.66069114 46.8548584 48.66767502 C48.7626112 48.67529296 50.67041324 48.66162312 52.578125 48.64697266 C53.66383789 48.64458588 54.74955078 48.6421991 55.86816406 48.63973999 C58.56011015 48.46393358 58.56011015 48.46393358 60.41226196 46.98233032 C62.51177438 43.83637603 61.98709376 39.98264489 61.9609375 36.32128906 C61.96380768 35.44480713 61.96667786 34.5683252 61.96963501 33.6652832 C61.97167598 31.81265619 61.96614378 29.96000764 61.95361328 28.10742188 C61.93755984 25.26936727 61.95346055 22.4327368 61.97265625 19.59472656 C61.97067382 17.79524425 61.96683016 15.99576282 61.9609375 14.19628906 C61.96701019 13.34623291 61.97308289 12.49617676 61.9793396 11.62036133 C62.02826444 7.35898435 62.02826444 7.35898435 60.41226196 3.5352478 C57.76511541 1.70854068 55.77837427 1.87764075 52.578125 1.87060547 C51.34674805 1.86114899 50.11537109 1.8516925 48.84667969 1.84194946 C47.50194986 1.84731917 46.15722296 1.85347212 44.8125 1.86035156 C43.4339177 1.85833059 42.05533645 1.85541896 40.67675781 1.85165405 C37.78830786 1.84723171 34.90013633 1.85365848 32.01171875 1.86767578 C28.30920246 1.88476807 24.60733854 1.87492634 20.90484619 1.85695839 C18.05838098 1.84611785 15.21207045 1.84956803 12.36560059 1.85734177 C11.00044681 1.85934305 9.63527898 1.85688698 8.2701416 1.84990311 C6.3623888 1.84228516 4.45458676 1.85595501 2.546875 1.87060547 C1.46116211 1.87299225 0.37544922 1.87537903 -0.74316406 1.87783813 C-3.43511015 2.05364454 -3.43511015 2.05364454 -5.28726196 3.5352478 Z " fill="#000000" transform="translate(22.4375,23.7412109375)"/>
</svg>
