<?xml version="1.0" encoding="UTF-8"?>
<svg version="1.1" xmlns="http://www.w3.org/2000/svg" width="100" height="100">
<path d="M0 0 C1.43158447 -0.00945648 1.43158447 -0.00945648 2.89208984 -0.019104 C3.92543457 -0.01505554 4.9587793 -0.01100708 6.0234375 -0.00683594 C7.08127441 -0.00874939 8.13911133 -0.01066284 9.22900391 -0.01263428 C11.46842689 -0.01399696 13.70785776 -0.01029476 15.94726562 -0.00195312 C19.38429427 0.00874504 22.8208002 -0.00184581 26.2578125 -0.01464844 C28.42968866 -0.01332686 30.60156449 -0.0107645 32.7734375 -0.00683594 C33.80678223 -0.0108844 34.84012695 -0.01493286 35.90478516 -0.019104 C36.8591748 -0.01279968 37.81356445 -0.00649536 38.796875 0 C39.63911621 0.00159119 40.48135742 0.00318237 41.34912109 0.00482178 C43.3984375 0.25878906 43.3984375 0.25878906 45.3984375 2.25878906 C45.59722398 5.17031116 45.67110039 7.98673939 45.65722656 10.89941406 C45.6607312 11.79382202 45.66423584 12.68822998 45.66784668 13.60974121 C45.67667344 16.57616867 45.67081151 19.54235904 45.6640625 22.50878906 C45.66540888 24.56380255 45.66734918 26.61881573 45.66986084 28.67382812 C45.67281338 32.98473131 45.66851026 37.29555173 45.65917969 41.60644531 C45.64778511 47.1417703 45.65434388 52.67690137 45.66632462 58.21221924 C45.67353969 62.45688345 45.67125691 66.70150142 45.66606903 70.94616699 C45.66473156 72.98758975 45.66638365 75.02901666 45.67102814 77.07043457 C45.67608757 79.91979143 45.66839136 82.76883094 45.65722656 85.61816406 C45.66127502 86.46809937 45.66532349 87.31803467 45.66949463 88.19372559 C45.62696535 94.03026121 45.62696535 94.03026121 43.3984375 96.25878906 C41.34912109 96.51275635 41.34912109 96.51275635 38.796875 96.51757812 C37.84248535 96.52388245 36.8880957 96.53018677 35.90478516 96.53668213 C34.35476807 96.53060944 34.35476807 96.53060944 32.7734375 96.52441406 C31.71560059 96.52632751 30.65776367 96.52824097 29.56787109 96.5302124 C27.32844811 96.53157508 25.08901724 96.52787288 22.84960938 96.51953125 C19.41258073 96.50883308 15.9760748 96.51942394 12.5390625 96.53222656 C10.36718634 96.53090498 8.19531051 96.52834262 6.0234375 96.52441406 C4.99009277 96.52846252 3.95674805 96.53251099 2.89208984 96.53668213 C1.9377002 96.53037781 0.98331055 96.52407349 0 96.51757812 C-0.84224121 96.51598694 -1.68448242 96.51439575 -2.55224609 96.51275635 C-4.6015625 96.25878906 -4.6015625 96.25878906 -6.6015625 94.25878906 C-6.80034898 91.34726696 -6.87422539 88.53083873 -6.86035156 85.61816406 C-6.8638562 84.7237561 -6.86736084 83.82934814 -6.87097168 82.90783691 C-6.87979844 79.94140946 -6.87393651 76.97521909 -6.8671875 74.00878906 C-6.86853388 71.95377557 -6.87047418 69.89876239 -6.87298584 67.84375 C-6.87593838 63.53284681 -6.87163526 59.2220264 -6.86230469 54.91113281 C-6.85091011 49.37580782 -6.85746888 43.84067676 -6.86944962 38.30535889 C-6.87666469 34.06069468 -6.87438191 29.81607671 -6.86919403 25.57141113 C-6.86785656 23.52998838 -6.86950865 21.48856147 -6.87415314 19.44714355 C-6.87921257 16.5977867 -6.87151636 13.74874719 -6.86035156 10.89941406 C-6.86440002 10.04947876 -6.86844849 9.19954346 -6.87261963 8.32385254 C-6.82814507 2.22035482 -6.32388654 0.01194727 0 0 Z M-2.6015625 6.25878906 C-2.80003858 8.92841392 -2.87430069 11.49430198 -2.86035156 14.16503906 C-2.8638562 14.98141846 -2.86736084 15.79779785 -2.87097168 16.63891602 C-2.87979598 19.3456261 -2.87393743 22.05207618 -2.8671875 24.75878906 C-2.86853395 26.63444062 -2.87047431 28.51009183 -2.87298584 30.38574219 C-2.87593805 34.32002072 -2.87163636 38.25420855 -2.86230469 42.18847656 C-2.8509101 47.23953471 -2.85746906 52.29038032 -2.86944962 57.34143066 C-2.87666561 61.21551118 -2.87438149 65.08954104 -2.86919403 68.96362305 C-2.86785681 70.82641627 -2.86950777 72.68921404 -2.87415314 74.55200195 C-2.87921411 77.15230548 -2.87151431 79.75226151 -2.86035156 82.35253906 C-2.86440002 83.12766846 -2.86844849 83.90279785 -2.87261963 84.70141602 C-2.98737421 88.94039467 -2.98737421 88.94039467 -0.6015625 92.25878906 C2.38805853 92.45885209 5.283061 92.53851829 8.2734375 92.52441406 C9.59384033 92.52728424 9.59384033 92.52728424 10.94091797 92.5302124 C12.80371384 92.53157458 14.66651919 92.52787588 16.52929688 92.51953125 C19.38693486 92.50883213 22.24394416 92.51942538 25.1015625 92.53222656 C26.90885556 92.53090497 28.71614823 92.52834259 30.5234375 92.52441406 C31.81096924 92.53048676 31.81096924 92.53048676 33.12451172 92.53668213 C37.74068808 92.71372281 37.74068808 92.71372281 41.3984375 90.25878906 C41.59691358 87.5891642 41.67117569 85.02327614 41.65722656 82.35253906 C41.6607312 81.53615967 41.66423584 80.71978027 41.66784668 79.87866211 C41.67667098 77.17195203 41.67081243 74.46550194 41.6640625 71.75878906 C41.66540895 69.88313751 41.66734931 68.00748629 41.66986084 66.13183594 C41.67281305 62.1975574 41.66851136 58.26336957 41.65917969 54.32910156 C41.6477851 49.27804342 41.65434406 44.2271978 41.66632462 39.17614746 C41.67354061 35.30206695 41.67125649 31.42803709 41.66606903 27.55395508 C41.66473181 25.69116186 41.66638277 23.82836408 41.67102814 21.96557617 C41.67608911 19.36527264 41.66838931 16.76531661 41.65722656 14.16503906 C41.66127502 13.38990967 41.66532349 12.61478027 41.66949463 11.81616211 C41.78424921 7.57718345 41.78424921 7.57718345 39.3984375 4.25878906 C36.65358157 4.11371211 34.01363207 4.07226483 31.2734375 4.13378906 C30.14228516 4.14732422 30.14228516 4.14732422 28.98828125 4.16113281 C27.12486496 4.18472036 25.26161157 4.22059187 23.3984375 4.25878906 C23.0684375 5.57878906 22.7384375 6.89878906 22.3984375 8.25878906 C20.4184375 8.25878906 18.4384375 8.25878906 16.3984375 8.25878906 C16.0684375 6.93878906 15.7384375 5.61878906 15.3984375 4.25878906 C12.77316561 4.204968 10.14899037 4.16520593 7.5234375 4.13378906 C6.40388672 4.10865234 6.40388672 4.10865234 5.26171875 4.08300781 C0.86191306 3.85790102 0.86191306 3.85790102 -2.6015625 6.25878906 Z " fill="#000000" transform="translate(30.6015625,1.7412109375)"/>
</svg>
