<?xml version="1.0" encoding="UTF-8"?>
<svg version="1.1" xmlns="http://www.w3.org/2000/svg" width="100" height="100">
<path d="M0 0 C10.06866931 7.25087772 17.72756886 16.79280068 20.3125 29.25 C21.70668558 45.91292143 19.18676434 58.15716957 8.640625 71.33984375 C2.22382219 78.48333577 -8.09918475 84.61508614 -17.80297852 85.42700195 C-34.86566428 85.88895149 -46.79126814 83.44661518 -59.8125 71.75 C-70.07212814 61.14084545 -72.17133125 48.37416494 -71.96484375 34.2578125 C-71.50503107 21.94581333 -64.87448062 11.59167312 -56.171875 3.17578125 C-39.79726859 -9.51711334 -17.57628553 -10.86641977 0 0 Z M-59.3046875 14.18359375 C-66.3717392 24.74424446 -67.93601941 35.84283836 -66.6875 48.25 C-64.05330406 58.63917796 -57.65044739 68.25211082 -48.6875 74.25 C-37.34051592 80.13833676 -25.71857745 82.53984696 -13.11328125 79.34375 C-0.29860322 74.224442 7.90519989 66.27791871 13.33203125 53.703125 C16.96257095 44.6195436 16.82304519 32.72551536 13.1875 23.625 C7.40354382 11.86212283 -0.61316566 4.32647893 -12.6875 -0.75 C-30.07906363 -5.7269926 -47.96402394 0.3331112 -59.3046875 14.18359375 Z " fill="#000000" transform="translate(75.6875,10.75)"/>
<path d="M0 0 C-0.50226742 4.43407956 -1.95123629 6.48523951 -5 9.6875 C-5.80308594 10.55632813 -6.60617188 11.42515625 -7.43359375 12.3203125 C-9.12888722 14.09043628 -10.85015093 15.83608828 -12.59765625 17.5546875 C-17.88339985 22.71693996 -17.88339985 22.71693996 -19.875 29.5625 C-19.42706487 33.92600603 -17.49817008 37.25274488 -15.09375 40.859375 C-13.79358921 43.40397541 -13.80282974 45.18046523 -14 48 C-16.29296875 47.83984375 -16.29296875 47.83984375 -19 47 C-20.80078125 44.56640625 -20.80078125 44.56640625 -22.3125 41.5625 C-23.08013672 40.07943359 -23.08013672 40.07943359 -23.86328125 38.56640625 C-25 36 -25 36 -25 34 C-26.175625 34.061875 -26.175625 34.061875 -27.375 34.125 C-30 34 -30 34 -32 32 C-32.265625 30.125 -32.265625 30.125 -32.25 28 C-32.25515625 27.29875 -32.2603125 26.5975 -32.265625 25.875 C-32 24 -32 24 -30 22 C-28.989375 21.814375 -27.97875 21.62875 -26.9375 21.4375 C-19.15435436 19.38249065 -13.52383269 10.61493403 -8.5078125 4.7265625 C-8.01023437 4.15679687 -7.51265625 3.58703125 -7 3 C-6.52304688 2.43023438 -6.04609375 1.86046875 -5.5546875 1.2734375 C-4 0 -4 0 0 0 Z " fill="#000000" transform="translate(76,22)"/>
</svg>
