<svg version="1.1" id="Layer_1" xmlns="http://www.w3.org/2000/svg" xmlns:xlink="http://www.w3.org/1999/xlink" x="0px" y="0px"
	 width="100%" viewBox="0 0 96 96" enable-background="new 0 0 96 96" xml:space="preserve">
<path fill="#000000" opacity="1.000000" stroke="none" 
	d="
M63.000000,97.000000 
	C42.000000,97.000000 21.500000,97.000000 1.000000,97.000000 
	C1.000000,65.000000 1.000000,33.000000 1.000000,1.000000 
	C33.000000,1.000000 65.000000,1.000000 97.000000,1.000000 
	C97.000000,33.000000 97.000000,65.000000 97.000000,97.000000 
	C85.833336,97.000000 74.666664,97.000000 63.000000,97.000000 
M81.803177,56.632118 
	C81.927132,55.219162 82.051094,53.806202 82.110779,53.125828 
	C84.959587,51.981773 87.395851,51.003395 89.969490,49.351048 
	C89.924149,48.897038 89.878807,48.443027 89.648010,47.232895 
	C87.157173,46.645172 84.666336,46.057446 83.111229,45.690510 
	C81.898308,43.381493 80.985931,41.644623 79.759239,39.245300 
	C76.204201,24.725019 65.865952,18.613449 52.003601,15.968355 
	C52.003601,13.041884 52.003601,10.115414 52.003601,6.951627 
	C49.668903,7.055152 47.940205,7.131806 45.823120,7.225682 
	C45.823120,10.394364 45.823120,13.144788 45.823120,15.895211 
	C45.463120,15.442933 45.103119,14.990654 44.743118,14.538375 
	C38.922783,17.437048 32.561646,19.604044 27.412088,23.410240 
	C20.149302,28.778393 16.455189,36.777550 15.622670,46.258987 
	C12.570606,46.258987 9.837118,46.258987 6.936225,46.258987 
	C7.037346,48.456478 7.117326,50.194550 7.174476,51.436493 
	C10.808072,52.026844 13.835028,52.518639 16.982729,53.826691 
	C18.324970,61.412125 20.430351,68.812675 26.599178,73.872116 
	C29.876171,76.559776 34.132977,78.052780 38.324726,80.770523 
	C40.805416,81.346207 43.286110,81.921898 45.995712,82.550705 
	C45.995712,84.389206 45.812321,86.223976 46.086758,87.987495 
	C46.195221,88.684448 47.322800,89.222809 48.761810,89.956429 
	C50.201637,87.114738 51.641468,84.273056 53.013035,81.566093 
	C55.498440,80.710556 58.212761,79.776222 61.714573,78.980263 
	C71.426987,76.622711 80.317741,66.562408 81.803177,56.632118 
z"/>
<path fill="#2B83FF" opacity="1.000000" stroke="none" 
	d="
M37.947495,80.085060 
	C34.132977,78.052780 29.876171,76.559776 26.599178,73.872116 
	C20.430351,68.812675 18.324970,61.412125 16.951300,53.032013 
	C14.444189,51.125763 11.968508,50.014191 8.926276,48.648239 
	C10.185122,48.265743 10.832932,47.841755 11.397467,47.932999 
	C16.300980,48.725533 17.700790,46.219864 18.703539,41.763542 
	C21.312147,30.170580 28.620901,22.220589 40.127239,19.226562 
	C45.461864,17.838455 48.887844,16.260029 48.206776,10.168049 
	C48.186394,9.985740 48.925343,9.718539 49.693539,9.264269 
	C49.884163,10.839479 49.862549,12.163382 50.239853,13.361677 
	C50.627274,14.592100 51.404472,15.699797 52.011093,16.861202 
	C65.865952,18.613449 76.204201,24.725019 79.688232,39.838379 
	C80.227287,47.876556 80.227287,47.876602 87.403641,47.961525 
	C88.213577,47.971107 89.023529,47.979874 89.833466,47.989017 
	C89.878807,48.443027 89.924149,48.897038 89.463493,49.686813 
	C80.187431,50.101303 80.187431,50.101303 79.768524,57.262184 
	C76.315430,62.607952 73.373558,67.930878 69.587334,72.563759 
	C67.405952,75.232925 63.859238,76.786285 60.927082,78.841888 
	C58.212761,79.776222 55.498440,80.710556 53.013035,81.566093 
	C51.641468,84.273056 50.201637,87.114738 48.373550,89.456726 
	C47.877285,79.824577 47.877277,79.824326 38.918888,80.038895 
	C38.594906,80.046646 38.271286,80.069328 37.947495,80.085060 
M50.938709,69.800133 
	C49.430805,77.098000 50.073891,77.900398 56.768669,76.054443 
	C66.450829,74.192947 74.570641,65.665298 75.988701,55.221603 
	C75.336769,53.853680 74.684837,52.485752 73.504951,50.622421 
	C72.549423,50.518478 71.482941,50.086475 70.657036,50.365803 
	C66.458069,51.785908 65.058258,50.329845 66.742134,46.013332 
	C67.492599,46.061810 68.243073,46.110287 69.580162,46.593925 
	C71.876732,46.745502 74.173302,46.897079 76.469872,47.048656 
	C76.009552,44.298862 75.585541,41.541878 75.043968,38.808178 
	C74.974594,38.457985 74.293564,38.228966 73.756485,37.270649 
	C68.265442,30.837919 63.250000,23.791731 53.566151,21.519424 
	C52.404842,22.269302 50.605400,22.787920 50.230377,23.822750 
	C49.654274,25.412424 50.298138,27.408827 49.928074,29.125671 
	C49.776302,29.829777 48.332737,30.255442 47.587032,29.959545 
	C47.624619,28.303492 47.690296,26.647499 47.694046,24.991369 
	C47.702293,21.345366 45.689941,20.543072 42.458797,21.127945 
	C31.220060,23.162277 21.408642,34.484512 21.228296,46.772724 
	C24.547195,47.425091 27.866096,48.077457 31.184996,48.729824 
	C28.878292,49.855579 26.558729,49.981155 24.237646,50.064419 
	C21.427507,50.165230 20.045263,51.103741 21.975407,54.769394 
	C23.663666,63.823280 31.030508,68.468414 37.457600,74.741249 
	C40.679302,75.290520 43.901005,75.839798 47.122707,76.389069 
	C46.802452,73.595406 46.482197,70.801743 46.015347,67.342667 
	C46.065327,66.893906 46.115303,66.445145 46.714439,65.861572 
	C47.141048,65.296333 47.567657,64.731094 48.725410,64.013992 
	C49.467918,64.057625 50.210426,64.101265 51.176048,64.519768 
	C51.358837,64.754524 51.585926,64.932884 51.991196,65.690460 
	C51.942959,66.118126 51.894722,66.545792 51.466145,67.394547 
	C51.307388,67.928940 51.148636,68.463326 50.938709,69.800133 
z"/>
<path fill="#88B9FF" opacity="1.000000" stroke="none" 
	d="
M52.007347,16.414780 
	C51.404472,15.699797 50.627274,14.592100 50.239853,13.361677 
	C49.862549,12.163382 49.884163,10.839479 49.693539,9.264269 
	C48.925343,9.718539 48.186394,9.985740 48.206776,10.168049 
	C48.887844,16.260029 45.461864,17.838455 40.127239,19.226562 
	C28.620901,22.220589 21.312147,30.170580 18.703539,41.763542 
	C17.700790,46.219864 16.300980,48.725533 11.397467,47.932999 
	C10.832932,47.841755 10.185122,48.265743 8.926276,48.648239 
	C11.968508,50.014191 14.444189,51.125763 16.890926,52.623886 
	C13.835028,52.518639 10.808072,52.026844 7.174476,51.436493 
	C7.117326,50.194550 7.037346,48.456478 6.936225,46.258987 
	C9.837118,46.258987 12.570606,46.258987 15.622670,46.258987 
	C16.455189,36.777550 20.149302,28.778393 27.412088,23.410240 
	C32.561646,19.604044 38.922783,17.437048 44.743118,14.538375 
	C45.103119,14.990654 45.463120,15.442933 45.823120,15.895211 
	C45.823120,13.144788 45.823120,10.394364 45.823120,7.225682 
	C47.940205,7.131806 49.668903,7.055152 52.003601,6.951627 
	C52.003601,10.115414 52.003601,13.041884 52.007347,16.414780 
z"/>
<path fill="#79B1FF" opacity="1.000000" stroke="none" 
	d="
M61.320827,78.911072 
	C63.859238,76.786285 67.405952,75.232925 69.587334,72.563759 
	C73.373558,67.930878 76.315430,62.607952 80.061630,57.289551 
	C80.707115,57.018978 80.902344,57.033245 81.097565,57.047508 
	C80.317741,66.562408 71.426987,76.622711 61.320827,78.911072 
z"/>
<path fill="#5A9EFF" opacity="1.000000" stroke="none" 
	d="
M38.136108,80.427795 
	C38.271286,80.069328 38.594906,80.046646 38.918888,80.038895 
	C47.877277,79.824326 47.877285,79.824577 47.985817,89.395203 
	C47.322800,89.222809 46.195221,88.684448 46.086758,87.987495 
	C45.812321,86.223976 45.995712,84.389206 45.995712,82.550705 
	C43.286110,81.921898 40.805416,81.346207 38.136108,80.427795 
z"/>
<path fill="#5A9EFF" opacity="1.000000" stroke="none" 
	d="
M89.740738,47.610954 
	C89.023529,47.979874 88.213577,47.971107 87.403641,47.961525 
	C80.227287,47.876602 80.227287,47.876556 79.845390,40.169605 
	C80.985931,41.644623 81.898308,43.381493 83.111229,45.690510 
	C84.666336,46.057446 87.157173,46.645172 89.740738,47.610954 
z"/>
<path fill="#61A2FF" opacity="1.000000" stroke="none" 
	d="
M81.450371,56.839813 
	C80.902344,57.033245 80.707115,57.018978 80.218781,56.977348 
	C80.187431,50.101303 80.187431,50.101303 89.394806,50.023796 
	C87.395851,51.003395 84.959587,51.981773 82.110779,53.125828 
	C82.051094,53.806202 81.927132,55.219162 81.450371,56.839813 
z"/>
<path fill="#000000" opacity="1.000000" stroke="none" 
	d="
M50.952934,64.144897 
	C50.210426,64.101265 49.467918,64.057625 48.011238,64.027931 
	C46.919807,64.693375 46.542545,65.344879 46.165283,65.996384 
	C46.115303,66.445145 46.065327,66.893906 46.021881,68.114365 
	C46.028419,70.815186 46.028419,72.744324 46.028419,74.925072 
	C42.699154,74.645287 39.868225,74.407379 37.037296,74.169472 
	C31.030508,68.468414 23.663666,63.823280 21.999107,53.956642 
	C25.924046,52.570709 29.825281,51.997528 33.752281,51.420567 
	C34.101456,45.706398 34.021851,45.771721 28.312426,46.802166 
	C26.591148,47.112823 24.663164,46.278183 22.904984,45.570099 
	C23.998577,33.697392 35.617634,22.470665 46.170498,23.637943 
	C46.170498,26.048628 46.170498,28.506731 46.090939,31.393795 
	C47.681915,32.799831 49.352455,33.776909 52.014130,35.333687 
	C52.014130,31.698326 51.740280,29.711058 52.088898,27.839754 
	C52.459167,25.852270 53.419880,23.974785 54.122753,22.049265 
	C63.250000,23.791731 68.265442,30.837919 73.529594,37.794678 
	C73.945541,40.752399 74.588371,43.186100 75.284645,45.822117 
	C72.532433,45.969391 70.762985,46.064075 68.993538,46.158760 
	C68.243073,46.110287 67.492599,46.061810 65.953911,46.037155 
	C64.682411,47.878151 64.199142,49.695316 63.463757,52.460438 
	C67.728210,51.918716 70.880562,51.518272 74.032906,51.117825 
	C74.684837,52.485752 75.336769,53.853680 75.574417,55.619377 
	C71.137917,64.729660 65.428940,71.725410 55.531937,74.934067 
	C49.568661,75.425758 53.042160,70.930916 51.905056,68.667114 
	C51.933010,67.879410 51.889748,67.426430 51.846485,66.973457 
	C51.894722,66.545792 51.942959,66.118126 51.959053,65.086868 
	C51.602253,64.370491 51.277596,64.257690 50.952934,64.144897 
z"/>
<path fill="#8DBCFF" opacity="1.000000" stroke="none" 
	d="
M46.170498,30.964832 
	C46.170498,28.506731 46.170498,26.048628 46.170498,23.637943 
	C35.617634,22.470665 23.998577,33.697392 22.594284,45.577908 
	C21.794247,46.001019 21.380030,46.018234 20.965811,46.035450 
	C21.408642,34.484512 31.220060,23.162277 42.458797,21.127945 
	C45.689941,20.543072 47.702293,21.345366 47.694046,24.991369 
	C47.690296,26.647499 47.624619,28.303492 47.319061,30.415709 
	C46.759323,30.919573 46.465794,30.950560 46.170498,30.964832 
z"/>
<path fill="#5EA1FF" opacity="1.000000" stroke="none" 
	d="
M55.953751,74.887993 
	C65.428940,71.725410 71.137917,64.729660 75.532394,55.987236 
	C74.570641,65.665298 66.450829,74.192947 56.372784,75.774582 
	C55.969181,75.292480 55.961468,75.090240 55.953751,74.887993 
z"/>
<path fill="#61A2FF" opacity="1.000000" stroke="none" 
	d="
M21.097054,46.404087 
	C21.380030,46.018234 21.794247,46.001019 22.519167,45.975990 
	C24.663164,46.278183 26.591148,47.112823 28.312426,46.802166 
	C34.021851,45.771721 34.101456,45.706398 33.752281,51.420567 
	C29.825281,51.997528 25.924046,52.570709 21.929926,53.570599 
	C20.045263,51.103741 21.427507,50.165230 24.237646,50.064419 
	C26.558729,49.981155 28.878292,49.855579 31.184996,48.729824 
	C27.866096,48.077457 24.547195,47.425091 21.097054,46.404087 
z"/>
<path fill="#62A3FF" opacity="1.000000" stroke="none" 
	d="
M46.090939,31.393795 
	C46.465794,30.950560 46.759323,30.919573 47.263947,30.839821 
	C48.332737,30.255442 49.776302,29.829777 49.928074,29.125671 
	C50.298138,27.408827 49.654274,25.412424 50.230377,23.822750 
	C50.605400,22.787920 52.404842,22.269302 53.844452,21.784344 
	C53.419880,23.974785 52.459167,25.852270 52.088898,27.839754 
	C51.740280,29.711058 52.014130,31.698326 52.014130,35.333687 
	C49.352455,33.776909 47.681915,32.799831 46.090939,31.393795 
z"/>
<path fill="#4A94FF" opacity="1.000000" stroke="none" 
	d="
M37.247448,74.455360 
	C39.868225,74.407379 42.699154,74.645287 46.028419,74.925072 
	C46.028419,72.744324 46.028419,70.815186 46.095177,68.447067 
	C46.482197,70.801743 46.802452,73.595406 47.122707,76.389069 
	C43.901005,75.839798 40.679302,75.290520 37.247448,74.455360 
z"/>
<path fill="#4793FF" opacity="1.000000" stroke="none" 
	d="
M69.286850,46.376343 
	C70.762985,46.064075 72.532433,45.969391 75.284645,45.822117 
	C74.588371,43.186100 73.945541,40.752399 73.599289,38.131256 
	C74.293564,38.228966 74.974594,38.457985 75.043968,38.808178 
	C75.585541,41.541878 76.009552,44.298862 76.469872,47.048656 
	C74.173302,46.897079 71.876732,46.745502 69.286850,46.376343 
z"/>
<path fill="#4793FF" opacity="1.000000" stroke="none" 
	d="
M73.768929,50.870125 
	C70.880562,51.518272 67.728210,51.918716 63.463757,52.460438 
	C64.199142,49.695316 64.682411,47.878151 65.583786,46.112663 
	C65.058258,50.329845 66.458069,51.785908 70.657036,50.365803 
	C71.482941,50.086475 72.549423,50.518478 73.768929,50.870125 
z"/>
<path fill="#4E98FF" opacity="1.000000" stroke="none" 
	d="
M55.531937,74.934067 
	C55.961468,75.090240 55.969181,75.292480 55.983841,75.799240 
	C50.073891,77.900398 49.430805,77.098000 51.175339,69.400253 
	C51.411968,69.000374 51.833843,69.001846 51.833843,69.001846 
	C53.042160,70.930916 49.568661,75.425758 55.531937,74.934067 
z"/>
<path fill="#4A94FF" opacity="1.000000" stroke="none" 
	d="
M46.439861,65.928978 
	C46.542545,65.344879 46.919807,64.693375 47.645668,64.103867 
	C47.567657,64.731094 47.141048,65.296333 46.439861,65.928978 
z"/>
<path fill="#4A94FF" opacity="1.000000" stroke="none" 
	d="
M51.905056,68.667114 
	C51.833843,69.001846 51.411968,69.000374 51.200924,68.999046 
	C51.148636,68.463326 51.307388,67.928940 51.656315,67.184006 
	C51.889748,67.426430 51.933010,67.879410 51.905056,68.667114 
z"/>
<path fill="#4A94FF" opacity="1.000000" stroke="none" 
	d="
M51.064491,64.332336 
	C51.277596,64.257690 51.602253,64.370491 51.892113,64.769058 
	C51.585926,64.932884 51.358837,64.754524 51.064491,64.332336 
z"/>
</svg>