<?xml version="1.0" encoding="UTF-8"?>
<svg version="1.1" xmlns="http://www.w3.org/2000/svg" width="96" height="96">
<path d="M0 0 C1.16478378 -0.0159874 2.32956757 -0.03197479 3.52964783 -0.04844666 C4.78387039 -0.05380936 6.03809296 -0.05917206 7.33032227 -0.06469727 C8.62237076 -0.07372574 9.91441925 -0.08275421 11.24562073 -0.09205627 C13.97838842 -0.10852396 16.71103391 -0.1162425 19.44384766 -0.11914062 C22.93902041 -0.12452782 26.43303925 -0.16222819 29.92788601 -0.20788479 C33.27035962 -0.2448432 36.61265126 -0.24617017 39.95532227 -0.25219727 C41.83361977 -0.28149574 41.83361977 -0.28149574 43.74986267 -0.31138611 C53.40538586 -0.2611405 53.40538586 -0.2611405 56.50268555 2.66479492 C58.48223994 5.72899786 58.79980068 7.37448058 58.64672852 10.99389648 C58.61385742 12.42282227 58.61385742 12.42282227 58.58032227 13.88061523 C58.20922852 16.30639648 58.20922852 16.30639648 56.20922852 18.30639648 C53.82641602 18.50170898 53.82641602 18.50170898 51.08422852 18.43139648 C50.17415039 18.41334961 49.26407227 18.39530273 48.32641602 18.37670898 C47.62774414 18.35350586 46.92907227 18.33030273 46.20922852 18.30639648 C46.21446533 19.39170654 46.21970215 20.4770166 46.22509766 21.59521484 C46.24314688 25.6075763 46.25466023 29.61993415 46.26416016 33.63232422 C46.26920056 35.37158816 46.27603282 37.11084785 46.28466797 38.85009766 C46.29674643 41.34465585 46.3024596 43.83915822 46.30688477 46.33374023 C46.31204605 47.116035 46.31720734 47.89832977 46.32252502 48.70433044 C46.32272078 50.57206763 46.27122546 52.43968853 46.20922852 54.30639648 C45.87922852 54.63639648 45.54922852 54.96639648 45.20922852 55.30639648 C45.04256185 58.30639648 45.04256185 58.30639648 45.20922852 61.30639648 C45.53922852 61.63639648 45.86922852 61.96639648 46.20922852 62.30639648 C46.48266602 64.19702148 46.48266602 64.19702148 46.58422852 66.55639648 C46.63321289 67.32467773 46.68219727 68.09295898 46.73266602 68.88452148 C46.13891947 71.63170699 45.19937997 73.29246418 43.15859985 75.23400879 C38.4880542 77.80336825 32.51251931 77.01032433 27.33422852 76.97045898 C25.96329316 76.97383013 24.59236072 76.97868524 23.22143555 76.98495483 C20.35314377 76.99231242 17.48563242 76.98165858 14.61743164 76.95825195 C10.94839358 76.92976247 7.28118415 76.94617277 3.61221313 76.97611427 C0.78273849 76.99421881 -2.04630555 76.9884153 -4.87579346 76.97547531 C-6.88376051 76.9705377 -8.89174458 76.98567112 -10.8996582 77.00112915 C-21.02005697 76.87089609 -21.02005697 76.87089609 -24.12304688 73.94140625 C-26.05834205 70.88363421 -26.38021268 69.21157065 -26.22827148 65.61889648 C-26.20635742 64.6662793 -26.18444336 63.71366211 -26.16186523 62.73217773 C-25.79077148 60.30639648 -25.79077148 60.30639648 -23.79077148 58.30639648 C-20.75170898 58.11108398 -20.75170898 58.11108398 -17.16577148 58.18139648 C-15.97725586 58.19944336 -14.78874023 58.21749023 -13.56420898 58.23608398 C-12.19135742 58.27088867 -12.19135742 58.27088867 -10.79077148 58.30639648 C-10.79077148 54.67639648 -10.79077148 51.04639648 -10.79077148 47.30639648 C-11.78077148 46.97639648 -12.77077148 46.64639648 -13.79077148 46.30639648 C-13.88995734 41.0045309 -13.96238903 35.7032103 -14.01049805 30.40063477 C-14.03056181 28.59845568 -14.05781961 26.79634127 -14.0925293 24.99438477 C-14.14127977 22.39770512 -14.1637923 19.8018892 -14.18139648 17.20483398 C-14.20204163 16.40459808 -14.22268677 15.60436218 -14.24395752 14.77987671 C-14.24605473 9.5019572 -13.37259565 6.44066084 -9.79077148 2.30639648 C-6.52254379 0.20735523 -3.8426458 0.0399203 0 0 Z " fill="#C9F7FE" transform="translate(31.790771484375,9.693603515625)"/>
<path d="M0 0 C1.09130722 -0.00953201 2.18261444 -0.01906403 3.30699158 -0.02888489 C4.4903157 -0.02797348 5.67363983 -0.02706207 6.89282227 -0.02612305 C8.10365982 -0.03040817 9.31449738 -0.0346933 10.56202698 -0.03910828 C13.12679417 -0.04486015 15.69157767 -0.04534557 18.25634766 -0.04101562 C22.18949109 -0.03785764 26.12188141 -0.06129858 30.05493164 -0.08666992 C32.5425609 -0.08894294 35.03019218 -0.0896464 37.51782227 -0.08862305 C38.69912216 -0.09783279 39.88042206 -0.10704254 41.09751892 -0.11653137 C42.73920799 -0.10718819 42.73920799 -0.10718819 44.4140625 -0.09765625 C45.37843735 -0.09828568 46.34281219 -0.0989151 47.33641052 -0.0995636 C50.18735452 0.33852515 51.06742375 0.99051401 52.77172852 3.2746582 C53.44130348 5.94784678 53.54535559 8.51290857 53.77172852 11.2746582 C55.09172852 11.2746582 56.41172852 11.2746582 57.77172852 11.2746582 C58.43172852 8.9646582 59.09172852 6.6546582 59.77172852 4.2746582 C61.70922852 3.7121582 61.70922852 3.7121582 63.77172852 3.2746582 C65.33123403 4.83416371 65.05369549 6.36342951 65.14672852 8.5246582 C65.19571289 9.29293945 65.24469727 10.0612207 65.29516602 10.8527832 C64.70141947 13.59996871 63.76187997 15.2607259 61.72109985 17.20227051 C57.0505542 19.77162997 51.07501931 18.97858605 45.89672852 18.9387207 C44.52579316 18.94209185 43.15486072 18.94694695 41.78393555 18.95321655 C38.91564377 18.96057414 36.04813242 18.9499203 33.17993164 18.92651367 C29.51089358 18.89802419 25.84368415 18.91443449 22.17471313 18.94437599 C19.34523849 18.96248053 16.51619445 18.95667702 13.68670654 18.94373703 C11.67873949 18.93879942 9.67075542 18.95393284 7.6628418 18.96939087 C-2.45755697 18.83915781 -2.45755697 18.83915781 -5.56054688 15.90966797 C-7.49584205 12.85189593 -7.81771268 11.17983237 -7.66577148 7.5871582 C-7.64385742 6.63454102 -7.62194336 5.68192383 -7.59936523 4.70043945 C-6.86155371 -0.12251799 -4.25350676 0.02033831 0 0 Z " fill="#10CFE3" transform="translate(13.228271484375,67.725341796875)"/>
<path d="M0 0 C1.16478378 -0.0159874 2.32956757 -0.03197479 3.52964783 -0.04844666 C4.78387039 -0.05380936 6.03809296 -0.05917206 7.33032227 -0.06469727 C8.62237076 -0.07372574 9.91441925 -0.08275421 11.24562073 -0.09205627 C13.97838842 -0.10852396 16.71103391 -0.1162425 19.44384766 -0.11914062 C22.93902041 -0.12452782 26.43303925 -0.16222819 29.92788601 -0.20788479 C33.27035962 -0.2448432 36.61265126 -0.24617017 39.95532227 -0.25219727 C41.83361977 -0.28149574 41.83361977 -0.28149574 43.74986267 -0.31138611 C53.40538586 -0.2611405 53.40538586 -0.2611405 56.50268555 2.66479492 C58.48223994 5.72899786 58.79980068 7.37448058 58.64672852 10.99389648 C58.61385742 12.42282227 58.61385742 12.42282227 58.58032227 13.88061523 C58.20922852 16.30639648 58.20922852 16.30639648 56.20922852 18.30639648 C52.90922852 18.30639648 49.60922852 18.30639648 46.20922852 18.30639648 C46.20922852 30.18639648 46.20922852 42.06639648 46.20922852 54.30639648 C44.22922852 54.80139648 44.22922852 54.80139648 42.20922852 55.30639648 C40.20922852 53.30639648 40.20922852 53.30639648 39.96871948 51.28158569 C39.97538132 50.0358226 39.97538132 50.0358226 39.98217773 48.76489258 C39.9823288 47.8240683 39.98247986 46.88324402 39.9826355 45.91390991 C39.99295807 44.89616486 40.00328064 43.8784198 40.01391602 42.82983398 C40.01674591 41.78944977 40.01957581 40.74906555 40.02249146 39.67715454 C40.03371148 36.34511954 40.05881937 33.01335062 40.08422852 29.68139648 C40.09425596 27.42619203 40.10338222 25.17098336 40.11157227 22.91577148 C40.13365673 17.37922194 40.16715213 11.84282822 40.20922852 6.30639648 C33.99748426 6.37516679 27.78642002 6.46308153 21.57519531 6.56884766 C19.46166516 6.60212776 17.34804546 6.63015001 15.234375 6.65283203 C12.19826046 6.68632121 9.16296877 6.73863412 6.12719727 6.79467773 C5.18023483 6.80106766 4.2332724 6.80745758 3.25761414 6.81404114 C2.37692764 6.8338353 1.49624115 6.85362946 0.58886719 6.87402344 C-0.57362297 6.89067802 -0.57362297 6.89067802 -1.75959778 6.90766907 C-4.34401582 7.41500053 -5.23620176 8.20299006 -6.79077148 10.30639648 C-7.09775843 13.00492585 -7.2317573 15.48503082 -7.23217773 18.18530273 C-7.24538559 18.95317612 -7.25859344 19.7210495 -7.27220154 20.51219177 C-7.31310052 22.96446379 -7.33477356 25.41636046 -7.35327148 27.86889648 C-7.37703683 30.32488942 -7.40510856 32.78052762 -7.4450531 35.23631287 C-7.46946089 36.76423272 -7.48427815 38.29234132 -7.48866272 39.82044983 C-7.56623776 45.08186276 -7.56623776 45.08186276 -9.79077148 47.30639648 C-11.91577148 46.93139648 -11.91577148 46.93139648 -13.79077148 46.30639648 C-13.88995734 41.0045309 -13.96238903 35.7032103 -14.01049805 30.40063477 C-14.03056181 28.59845568 -14.05781961 26.79634127 -14.0925293 24.99438477 C-14.14127977 22.39770512 -14.1637923 19.8018892 -14.18139648 17.20483398 C-14.20204163 16.40459808 -14.22268677 15.60436218 -14.24395752 14.77987671 C-14.24605473 9.5019572 -13.37259565 6.44066084 -9.79077148 2.30639648 C-6.52254379 0.20735523 -3.8426458 0.0399203 0 0 Z " fill="#10CFE3" transform="translate(31.790771484375,9.693603515625)"/>
<path d="M0 0 C15.84 0 31.68 0 48 0 C48 1.98 48 3.96 48 6 C41.3247966 6.02526945 34.64960543 6.04283268 27.97436523 6.05493164 C25.70157409 6.05997325 23.4287862 6.06680637 21.15600586 6.07543945 C17.89696449 6.08751261 14.63796583 6.09322987 11.37890625 6.09765625 C10.35599991 6.10281754 9.33309357 6.10797882 8.27919006 6.11329651 C7.33829025 6.11337204 6.39739044 6.11344757 5.42797852 6.11352539 C4.59524918 6.115746 3.76251984 6.11796661 2.90455627 6.12025452 C1 6 1 6 0 5 C0 3.35 0 1.7 0 0 Z " fill="#F3FDFE" transform="translate(12,74)"/>
<path d="M0 0 C1.25159912 0.00523682 2.50319824 0.01047363 3.79272461 0.01586914 C4.78942421 0.01799156 4.78942421 0.01799156 5.80625916 0.02015686 C7.93590735 0.02577021 10.06545175 0.03832485 12.19506836 0.05102539 C13.63582205 0.05603868 15.07657739 0.06060188 16.51733398 0.06469727 C20.05577938 0.07574394 23.59416375 0.09301747 27.13256836 0.11352539 C27.51475603 1.76967196 27.84651938 3.43809563 28.13256836 5.11352539 C27.13256836 6.11352539 27.13256836 6.11352539 24.26513672 6.22705078 C23.0135376 6.22181396 21.76193848 6.21657715 20.47241211 6.21118164 C19.47571251 6.20905922 19.47571251 6.20905922 18.45887756 6.20689392 C16.32922937 6.20128057 14.19968496 6.18872593 12.07006836 6.17602539 C10.62931467 6.1710121 9.18855933 6.1664489 7.74780273 6.16235352 C4.20935734 6.15130684 0.67097297 6.13403331 -2.86743164 6.11352539 C-3.24961931 4.45737882 -3.58138266 2.78895515 -3.86743164 1.11352539 C-2.86743164 0.11352539 -2.86743164 0.11352539 0 0 Z " fill="#14CFE3" transform="translate(35.867431640625,39.886474609375)"/>
<path d="M0 0 C1.25159912 0.00523682 2.50319824 0.01047363 3.79272461 0.01586914 C4.78942421 0.01799156 4.78942421 0.01799156 5.80625916 0.02015686 C7.93590735 0.02577021 10.06545175 0.03832485 12.19506836 0.05102539 C13.63582205 0.05603868 15.07657739 0.06060188 16.51733398 0.06469727 C20.05577938 0.07574394 23.59416375 0.09301747 27.13256836 0.11352539 C27.51475603 1.76967196 27.84651938 3.43809563 28.13256836 5.11352539 C27.13256836 6.11352539 27.13256836 6.11352539 24.26513672 6.22705078 C23.0135376 6.22181396 21.76193848 6.21657715 20.47241211 6.21118164 C19.47571251 6.20905922 19.47571251 6.20905922 18.45887756 6.20689392 C16.32922937 6.20128057 14.19968496 6.18872593 12.07006836 6.17602539 C10.62931467 6.1710121 9.18855933 6.1664489 7.74780273 6.16235352 C4.20935734 6.15130684 0.67097297 6.13403331 -2.86743164 6.11352539 C-3.24961931 4.45737882 -3.58138266 2.78895515 -3.86743164 1.11352539 C-2.86743164 0.11352539 -2.86743164 0.11352539 0 0 Z " fill="#13CFE3" transform="translate(35.867431640625,25.886474609375)"/>
<path d="M0 0 C1.084021 0.00523682 2.16804199 0.01047363 3.28491211 0.01586914 C5.03964844 0.02070312 5.03964844 0.02070312 6.82983398 0.02563477 C8.67738281 0.03820313 8.67738281 0.03820313 10.56225586 0.05102539 C12.41560547 0.05779297 12.41560547 0.05779297 14.30639648 0.06469727 C17.37089703 0.07652931 20.43530307 0.09301366 23.49975586 0.11352539 C23.88194353 1.76967196 24.21370688 3.43809563 24.49975586 5.11352539 C23.49975586 6.11352539 23.49975586 6.11352539 20.99951172 6.22705078 C19.91549072 6.22181396 18.83146973 6.21657715 17.71459961 6.21118164 C16.54477539 6.20795898 15.37495117 6.20473633 14.16967773 6.20141602 C12.93797852 6.19303711 11.7062793 6.1846582 10.43725586 6.17602539 C8.58390625 6.16925781 8.58390625 6.16925781 6.69311523 6.16235352 C3.62861469 6.15052147 0.56420864 6.13403712 -2.50024414 6.11352539 C-2.88243181 4.45737882 -3.21419516 2.78895515 -3.50024414 1.11352539 C-2.50024414 0.11352539 -2.50024414 0.11352539 0 0 Z " fill="#14CFE3" transform="translate(35.500244140625,53.886474609375)"/>
<path d="M0 0 C1.67542976 0.28604898 3.34385343 0.61781233 5 1 C5 2.65 5 4.3 5 6 C3.02 6 1.04 6 -1 6 C-1.042721 4.33388095 -1.04063832 2.66617115 -1 1 C-0.67 0.67 -0.34 0.34 0 0 Z " fill="#6CE8FC" transform="translate(79,16)"/>
</svg>
