<?xml version="1.0" encoding="UTF-8"?>
<svg version="1.1" xmlns="http://www.w3.org/2000/svg" width="96" height="96">
<path d="M0 0 C0.78890625 -0.00257813 1.5778125 -0.00515625 2.390625 -0.0078125 C3.21046875 -0.00007812 4.0303125 0.00765625 4.875 0.015625 C6.10476562 0.00402344 6.10476562 0.00402344 7.359375 -0.0078125 C8.54273437 -0.00394531 8.54273437 -0.00394531 9.75 0 C10.46929687 0.00225586 11.18859375 0.00451172 11.9296875 0.00683594 C13.875 0.265625 13.875 0.265625 16.875 2.265625 C17.4296875 4.578125 17.4296875 4.578125 17.75 7.265625 C18.32810591 11.29293483 18.32810591 11.29293483 21.1875 14.015625 C24.38885565 14.31342553 25.95620552 13.54704697 28.875 12.265625 C31.8125 11.578125 31.8125 11.578125 34.875 12.265625 C37.32959721 15.01215246 39.0847786 18.05902255 40.875 21.265625 C41.514375 22.3175 42.15375 23.369375 42.8125 24.453125 C44.1492473 27.99157374 44.1880886 29.71256172 42.875 33.265625 C41.864375 33.925625 40.85375 34.585625 39.8125 35.265625 C36.62448443 36.97589523 36.62448443 36.97589523 36.0625 40.140625 C36.98673263 43.69536589 37.62161845 44.08273227 40.4375 46.203125 C42.359375 47.71484375 42.359375 47.71484375 43.875 49.265625 C44.49228276 55.68536573 40.45261233 61.17509203 36.875 66.265625 C35.37109375 68.078125 35.37109375 68.078125 33.875 69.265625 C30.87724356 69.02091019 28.56822172 68.61223586 25.875 67.265625 C23.87539988 67.225633 21.87452758 67.22215701 19.875 67.265625 C17.66100697 71.06104163 16.86519802 75.02191921 15.875 79.265625 C12.1976718 80.42398338 8.71178577 80.39875378 4.875 80.390625 C3.658125 80.39320312 2.44125 80.39578125 1.1875 80.3984375 C-1.47250011 80.29178655 -3.60728971 80.05870374 -6.125 79.265625 C-6.28355469 78.49476562 -6.44210938 77.72390625 -6.60546875 76.9296875 C-6.83878906 75.92679687 -7.07210937 74.92390625 -7.3125 73.890625 C-7.53292969 72.89289063 -7.75335938 71.89515625 -7.98046875 70.8671875 C-8.9039449 68.06824321 -8.9039449 68.06824321 -11.5859375 66.859375 C-14.82089686 66.1028922 -16.1260324 66.94900508 -19.125 68.265625 C-22.0625 68.953125 -22.0625 68.953125 -25.125 68.265625 C-27.61457966 65.53433857 -29.36877466 62.50431115 -31.125 59.265625 C-31.48078125 58.61207031 -31.8365625 57.95851562 -32.203125 57.28515625 C-33.47384924 54.66861953 -34.11979715 52.48934766 -34.1875 49.578125 C-33.125 47.265625 -33.125 47.265625 -30.0625 45.328125 C-26.88017181 43.55516059 -26.88017181 43.55516059 -26.3125 40.390625 C-27.23673263 36.83588411 -27.87161845 36.44851773 -30.6875 34.328125 C-32.609375 32.81640625 -32.609375 32.81640625 -34.125 31.265625 C-34.74228276 24.84588427 -30.70261233 19.35615797 -27.125 14.265625 C-25.62109375 12.453125 -25.62109375 12.453125 -24.125 11.265625 C-21.12724356 11.51033981 -18.81822172 11.91901414 -16.125 13.265625 C-14.12539988 13.305617 -12.12452758 13.30909299 -10.125 13.265625 C-8.51985815 10.59038858 -8.06965042 8.80701416 -7.6875 5.640625 C-7.501875 4.526875 -7.31625 3.413125 -7.125 2.265625 C-4.07526315 0.2324671 -3.43543132 0.0107742 0 0 Z M-0.125 7.265625 C-0.516875 8.668125 -0.90875 10.070625 -1.3125 11.515625 C-2.78386271 15.8014751 -3.89455469 18.19540708 -8.125 20.265625 C-12.67421459 20.76057955 -16.77139952 20.71682516 -21.125 19.265625 C-22.775 21.905625 -24.425 24.545625 -26.125 27.265625 C-24.9184375 28.68875 -24.9184375 28.68875 -23.6875 30.140625 C-20.1109572 34.35911138 -19.79236059 37.29083038 -19.83203125 42.78125 C-20.23962127 46.23761334 -21.58776502 47.95226369 -24.125 50.265625 C-25.115 50.760625 -25.115 50.760625 -26.125 51.265625 C-25.06624926 54.66875238 -24.11597846 57.27915731 -22.125 60.265625 C-21.41214844 60.15863281 -20.69929688 60.05164063 -19.96484375 59.94140625 C-13.73957785 59.16220069 -9.45014726 58.71552683 -4.125 62.265625 C-2.12299698 65.93596387 -1.13785097 69.21422111 -0.125 73.265625 C3.175 73.265625 6.475 73.265625 9.875 73.265625 C10.266875 71.863125 10.65875 70.460625 11.0625 69.015625 C12.53386271 64.7297749 13.64455469 62.33584292 17.875 60.265625 C22.42421459 59.77067045 26.52139952 59.81442484 30.875 61.265625 C32.525 58.625625 34.175 55.985625 35.875 53.265625 C35.070625 52.316875 34.26625 51.368125 33.4375 50.390625 C29.8609572 46.17213862 29.54236059 43.24041962 29.58203125 37.75 C29.98962127 34.29363666 31.33776502 32.57898631 33.875 30.265625 C34.535 29.935625 35.195 29.605625 35.875 29.265625 C34.81624926 25.86249762 33.86597846 23.25209269 31.875 20.265625 C31.16214844 20.37261719 30.44929688 20.47960938 29.71484375 20.58984375 C23.48957785 21.36904931 19.20014726 21.81572317 13.875 18.265625 C11.87299698 14.59528613 10.88785097 11.31702889 9.875 7.265625 C6.575 7.265625 3.275 7.265625 -0.125 7.265625 Z " fill="#000000" transform="translate(43.125,7.734375)"/>
<path d="M0 0 C4.8846525 2.26787438 7.73212562 5.1153475 10 10 C10.75381535 15.5997712 10.77303575 20.33499991 8.375 25.5 C3.80134327 30.3143755 0.6912538 32.25156236 -6 32.5 C-12.6912538 32.25156236 -15.80134327 30.3143755 -20.375 25.5 C-22.77303575 20.33499991 -22.75381535 15.5997712 -22 10 C-17.52212837 0.3553534 -9.85292056 -1.32635469 0 0 Z M-15 12 C-15.69847125 14.8396864 -15.69847125 17.1603136 -15 20 C-13.01078114 22.9838283 -11.61497432 24.60276841 -8.0625 25.4765625 C-4.13936508 25.75890933 -2.32887629 25.21925086 1 23 C3.21925086 19.67112371 3.75890933 17.86063492 3.4765625 13.9375 C2.60276841 10.38502568 0.9838283 8.98921886 -2 7 C-7.81663203 5.56929615 -11.60814906 6.91222359 -15 12 Z " fill="#000000" transform="translate(54,32)"/>
</svg>
